<?xml version="1.0" encoding="UTF-8" standalone="no"?>
<svg
   xmlns:dc="http://purl.org/dc/elements/1.1/"
   xmlns:cc="http://creativecommons.org/ns#"
   xmlns:rdf="http://www.w3.org/1999/02/22-rdf-syntax-ns#"
   xmlns:svg="http://www.w3.org/2000/svg"
   xmlns="http://www.w3.org/2000/svg"
   id="svg3788"
   version="1.1"
   viewBox="0 0 55.033334 55.033334"
   height="208"
   width="208">
  <defs
     id="defs3782">
    <linearGradient
       id="linearGradient1856"
       spreadMethod="pad"
       gradientTransform="matrix(127.232,0,0,127.232,-126.2309,889.6643)"
       gradientUnits="userSpaceOnUse"
       y2="0"
       x2="1"
       y1="0"
       x1="0">
      <stop
         id="stop1850"
         offset="0"
         style="stop-opacity:1;stop-color:#29235c" />
      <stop
         id="stop1852"
         offset="0.990148"
         style="stop-opacity:1;stop-color:#1d70b8" />
      <stop
         id="stop1854"
         offset="1"
         style="stop-opacity:1;stop-color:#1d70b8" />
    </linearGradient>
    <linearGradient
       id="linearGradient1868"
       spreadMethod="pad"
       gradientTransform="matrix(109.948,0,0,109.948,39.8001,889.2033)"
       gradientUnits="userSpaceOnUse"
       y2="0"
       x2="1"
       y1="0"
       x1="0">
      <stop
         id="stop1862"
         offset="0"
         style="stop-opacity:1;stop-color:#29235c" />
      <stop
         id="stop1864"
         offset="0.990148"
         style="stop-opacity:1;stop-color:#1d70b8" />
      <stop
         id="stop1866"
         offset="1"
         style="stop-opacity:1;stop-color:#1d70b8" />
    </linearGradient>
    <clipPath
       id="clipPath1878"
       clipPathUnits="userSpaceOnUse">
      <path
         id="path1876"
         d="m 754.779,761.998 -11.368,-11.383 -11.383,-11.368 v -7.349 l 11.234,-11.236 11.236,-11.234 h 7.349 l 11.368,11.383 11.383,11.369 v 7.348 l -11.235,11.235 -11.235,11.235 z" />
    </clipPath>
    <linearGradient
       id="linearGradient1890"
       spreadMethod="pad"
       gradientTransform="matrix(52.570412,0,0,-52.570412,732.02777,735.71313)"
       gradientUnits="userSpaceOnUse"
       y2="0"
       x2="1"
       y1="0"
       x1="0">
      <stop
         id="stop1884"
         offset="0"
         style="stop-opacity:1;stop-color:#29235c" />
      <stop
         id="stop1886"
         offset="0.990148"
         style="stop-opacity:1;stop-color:#1d70b8" />
      <stop
         id="stop1888"
         offset="1"
         style="stop-opacity:1;stop-color:#1d70b8" />
    </linearGradient>
    <clipPath
       id="clipPath262"
       clipPathUnits="userSpaceOnUse">
      <path
         id="path260"
         d="m 848.304,756.946 c 0,-2.253 1.826,-4.079 4.08,-4.079 v 0 c 2.252,0 4.078,1.826 4.078,4.079 v 0 c 0,2.253 -1.826,4.079 -4.078,4.079 v 0 c -2.254,0 -4.08,-1.826 -4.08,-4.079" />
    </clipPath>
    <linearGradient
       id="linearGradient274"
       spreadMethod="pad"
       gradientTransform="matrix(8.1575766,0,0,-8.1575766,848.30469,756.94611)"
       gradientUnits="userSpaceOnUse"
       y2="0"
       x2="1"
       y1="0"
       x1="0">
      <stop
         id="stop268"
         offset="0"
         style="stop-opacity:1;stop-color:#29235c" />
      <stop
         id="stop270"
         offset="0.990148"
         style="stop-opacity:1;stop-color:#951b81" />
      <stop
         id="stop272"
         offset="1"
         style="stop-opacity:1;stop-color:#951b81" />
    </linearGradient>
    <clipPath
       id="clipPath284"
       clipPathUnits="userSpaceOnUse">
      <path
         id="path282"
         d="m 848.304,714.731 c 0,-2.253 1.826,-4.079 4.08,-4.079 v 0 c 2.252,0 4.078,1.826 4.078,4.079 v 0 c 0,2.252 -1.826,4.078 -4.078,4.078 v 0 c -2.254,0 -4.08,-1.826 -4.08,-4.078" />
    </clipPath>
    <linearGradient
       id="linearGradient296"
       spreadMethod="pad"
       gradientTransform="matrix(8.1575766,0,0,-8.1575766,848.30469,714.7309)"
       gradientUnits="userSpaceOnUse"
       y2="0"
       x2="1"
       y1="0"
       x1="0">
      <stop
         id="stop290"
         offset="0"
         style="stop-opacity:1;stop-color:#29235c" />
      <stop
         id="stop292"
         offset="0.990148"
         style="stop-opacity:1;stop-color:#951b81" />
      <stop
         id="stop294"
         offset="1"
         style="stop-opacity:1;stop-color:#951b81" />
    </linearGradient>
    <clipPath
       id="clipPath306"
       clipPathUnits="userSpaceOnUse">
      <path
         id="path304"
         d="m 932.044,672.576 c 0,-2.252 1.826,-4.079 4.078,-4.079 v 0 c 2.252,0 4.078,1.827 4.078,4.079 v 0 c 0,2.253 -1.826,4.079 -4.078,4.079 v 0 c -2.252,0 -4.078,-1.826 -4.078,-4.079" />
    </clipPath>
    <linearGradient
       id="linearGradient318"
       spreadMethod="pad"
       gradientTransform="matrix(8.1575766,0,0,-8.1575766,932.0434,672.57636)"
       gradientUnits="userSpaceOnUse"
       y2="0"
       x2="1"
       y1="0"
       x1="0">
      <stop
         id="stop312"
         offset="0"
         style="stop-opacity:1;stop-color:#29235c" />
      <stop
         id="stop314"
         offset="0.990148"
         style="stop-opacity:1;stop-color:#951b81" />
      <stop
         id="stop316"
         offset="1"
         style="stop-opacity:1;stop-color:#951b81" />
    </linearGradient>
    <clipPath
       id="clipPath328"
       clipPathUnits="userSpaceOnUse">
      <path
         id="path326"
         d="m 889.829,672.576 c 0,-2.252 1.824,-4.079 4.078,-4.079 v 0 c 2.253,0 4.079,1.827 4.079,4.079 v 0 c 0,2.253 -1.826,4.079 -4.079,4.079 v 0 c -2.254,0 -4.078,-1.826 -4.078,-4.079" />
    </clipPath>
    <linearGradient
       id="linearGradient340"
       spreadMethod="pad"
       gradientTransform="matrix(8.1575766,0,0,-8.1575766,889.82825,672.57636)"
       gradientUnits="userSpaceOnUse"
       y2="0"
       x2="1"
       y1="0"
       x1="0">
      <stop
         id="stop334"
         offset="0"
         style="stop-opacity:1;stop-color:#29235c" />
      <stop
         id="stop336"
         offset="0.990148"
         style="stop-opacity:1;stop-color:#951b81" />
      <stop
         id="stop338"
         offset="1"
         style="stop-opacity:1;stop-color:#951b81" />
    </linearGradient>
    <clipPath
       id="clipPath350"
       clipPathUnits="userSpaceOnUse">
      <path
         id="path348"
         d="m 974.225,756.737 c 0,-2.253 1.826,-4.08 4.08,-4.08 v 0 c 2.252,0 4.078,1.827 4.078,4.08 v 0 c 0,2.253 -1.826,4.079 -4.078,4.079 v 0 c -2.254,0 -4.08,-1.826 -4.08,-4.079" />
    </clipPath>
    <linearGradient
       id="linearGradient362"
       spreadMethod="pad"
       gradientTransform="matrix(8.1575766,0,0,-8.1575766,974.2254,756.73669)"
       gradientUnits="userSpaceOnUse"
       y2="0"
       x2="1"
       y1="0"
       x1="0">
      <stop
         id="stop356"
         offset="0"
         style="stop-opacity:1;stop-color:#29235c" />
      <stop
         id="stop358"
         offset="0.990148"
         style="stop-opacity:1;stop-color:#951b81" />
      <stop
         id="stop360"
         offset="1"
         style="stop-opacity:1;stop-color:#951b81" />
    </linearGradient>
    <clipPath
       id="clipPath372"
       clipPathUnits="userSpaceOnUse">
      <path
         id="path370"
         d="m 974.225,714.522 c 0,-2.253 1.826,-4.079 4.08,-4.079 v 0 c 2.252,0 4.078,1.826 4.078,4.079 v 0 c 0,2.252 -1.826,4.078 -4.078,4.078 v 0 c -2.254,0 -4.08,-1.826 -4.08,-4.078" />
    </clipPath>
    <linearGradient
       id="linearGradient384"
       spreadMethod="pad"
       gradientTransform="matrix(8.1575766,0,0,-8.1575766,974.2254,714.52155)"
       gradientUnits="userSpaceOnUse"
       y2="0"
       x2="1"
       y1="0"
       x1="0">
      <stop
         id="stop378"
         offset="0"
         style="stop-opacity:1;stop-color:#29235c" />
      <stop
         id="stop380"
         offset="0.990148"
         style="stop-opacity:1;stop-color:#951b81" />
      <stop
         id="stop382"
         offset="1"
         style="stop-opacity:1;stop-color:#951b81" />
    </linearGradient>
    <clipPath
       id="clipPath394"
       clipPathUnits="userSpaceOnUse">
      <path
         id="path392"
         d="m 890.545,798.85 c 0,-2.253 1.826,-4.079 4.078,-4.079 v 0 c 2.253,0 4.08,1.826 4.08,4.079 v 0 c 0,2.253 -1.827,4.079 -4.08,4.079 v 0 c -2.252,0 -4.078,-1.826 -4.078,-4.079" />
    </clipPath>
    <linearGradient
       id="linearGradient406"
       spreadMethod="pad"
       gradientTransform="matrix(8.1575766,0,0,-8.1575766,890.54468,798.84985)"
       gradientUnits="userSpaceOnUse"
       y2="0"
       x2="1"
       y1="0"
       x1="0">
      <stop
         id="stop400"
         offset="0"
         style="stop-opacity:1;stop-color:#29235c" />
      <stop
         id="stop402"
         offset="0.990148"
         style="stop-opacity:1;stop-color:#951b81" />
      <stop
         id="stop404"
         offset="1"
         style="stop-opacity:1;stop-color:#951b81" />
    </linearGradient>
    <clipPath
       id="clipPath416"
       clipPathUnits="userSpaceOnUse">
      <path
         id="path414"
         d="m 932.76,798.85 c 0,-2.253 1.825,-4.079 4.079,-4.079 v 0 c 2.252,0 4.079,1.826 4.079,4.079 v 0 c 0,2.253 -1.827,4.079 -4.079,4.079 v 0 c -2.254,0 -4.079,-1.826 -4.079,-4.079" />
    </clipPath>
    <linearGradient
       id="linearGradient428"
       spreadMethod="pad"
       gradientTransform="matrix(8.1575766,0,0,-8.1575766,932.75989,798.84985)"
       gradientUnits="userSpaceOnUse"
       y2="0"
       x2="1"
       y1="0"
       x1="0">
      <stop
         id="stop422"
         offset="0"
         style="stop-opacity:1;stop-color:#29235c" />
      <stop
         id="stop424"
         offset="0.990148"
         style="stop-opacity:1;stop-color:#951b81" />
      <stop
         id="stop426"
         offset="1"
         style="stop-opacity:1;stop-color:#951b81" />
    </linearGradient>
    <clipPath
       id="clipPath1076"
       clipPathUnits="userSpaceOnUse">
      <path
         id="path1074"
         d="M 0,841.89 H 1190.551 V 0 H 0 Z" />
    </clipPath>
    <linearGradient
       id="linearGradient1086"
       spreadMethod="pad"
       gradientTransform="matrix(119.473,0,0,119.473,-117.9729,886.3223)"
       gradientUnits="userSpaceOnUse"
       y2="0"
       x2="1"
       y1="0"
       x1="0">
      <stop
         id="stop1080"
         offset="0"
         style="stop-opacity:1;stop-color:#29235c" />
      <stop
         id="stop1082"
         offset="0.990148"
         style="stop-opacity:1;stop-color:#1d70b8" />
      <stop
         id="stop1084"
         offset="1"
         style="stop-opacity:1;stop-color:#1d70b8" />
    </linearGradient>
    <clipPath
       id="clipPath1824"
       clipPathUnits="userSpaceOnUse">
      <path
         id="path1822"
         d="m 755.612,600.4 -8.687,-8.699 -8.699,-8.687 v -5.617 l 8.586,-8.586 8.585,-8.585 h 5.616 l 8.688,8.698 8.699,8.688 v 5.616 l -8.586,8.586 -8.585,8.586 z" />
    </clipPath>
    <linearGradient
       id="linearGradient1836"
       spreadMethod="pad"
       gradientTransform="matrix(-70.26506,-80.674705,-80.674705,70.26506,800.36499,628.59448)"
       gradientUnits="userSpaceOnUse"
       y2="0"
       x2="1"
       y1="0"
       x1="0">
      <stop
         id="stop1830"
         offset="0"
         style="stop-opacity:1;stop-color:#f9b233" />
      <stop
         id="stop1832"
         offset="0.990148"
         style="stop-opacity:1;stop-color:#e6007e" />
      <stop
         id="stop1834"
         offset="1"
         style="stop-opacity:1;stop-color:#e6007e" />
    </linearGradient>
    <clipPath
       id="clipPath1096"
       clipPathUnits="userSpaceOnUse">
      <path
         id="path1094"
         d="m 894.059,649.302 c 0,-0.995 0.806,-1.801 1.801,-1.801 v 0 c 0.994,0 1.801,0.806 1.801,1.801 v 0 c 0,0.995 -0.807,1.801 -1.801,1.801 v 0 c -0.995,0 -1.801,-0.806 -1.801,-1.801" />
    </clipPath>
    <linearGradient
       id="linearGradient1108"
       spreadMethod="pad"
       gradientTransform="matrix(3.6019642,0,0,-3.6019642,894.05872,649.30212)"
       gradientUnits="userSpaceOnUse"
       y2="0"
       x2="1"
       y1="0"
       x1="0">
      <stop
         id="stop1102"
         offset="0"
         style="stop-opacity:1;stop-color:#2fac66" />
      <stop
         id="stop1104"
         offset="0.990148"
         style="stop-opacity:1;stop-color:#2c2e83" />
      <stop
         id="stop1106"
         offset="1"
         style="stop-opacity:1;stop-color:#2c2e83" />
    </linearGradient>
    <clipPath
       id="clipPath1118"
       clipPathUnits="userSpaceOnUse">
      <path
         id="path1116"
         d="m 899.633,649.302 c 0,-0.995 0.805,-1.801 1.8,-1.801 v 0 c 0.994,0 1.801,0.806 1.801,1.801 v 0 c 0,0.995 -0.807,1.801 -1.801,1.801 v 0 c -0.995,0 -1.8,-0.806 -1.8,-1.801" />
    </clipPath>
    <linearGradient
       id="linearGradient1130"
       spreadMethod="pad"
       gradientTransform="matrix(3.6019642,0,0,-3.6019642,899.63208,649.30212)"
       gradientUnits="userSpaceOnUse"
       y2="0"
       x2="1"
       y1="0"
       x1="0">
      <stop
         id="stop1124"
         offset="0"
         style="stop-opacity:1;stop-color:#2fac66" />
      <stop
         id="stop1126"
         offset="0.990148"
         style="stop-opacity:1;stop-color:#2c2e83" />
      <stop
         id="stop1128"
         offset="1"
         style="stop-opacity:1;stop-color:#2c2e83" />
    </linearGradient>
    <clipPath
       id="clipPath1140"
       clipPathUnits="userSpaceOnUse">
      <path
         id="path1138"
         d="m 904.918,649.271 c 0,-0.995 0.806,-1.801 1.801,-1.801 v 0 c 0.994,0 1.8,0.806 1.8,1.801 v 0 c 0,0.994 -0.806,1.801 -1.8,1.801 v 0 c -0.995,0 -1.801,-0.807 -1.801,-1.801" />
    </clipPath>
    <linearGradient
       id="linearGradient1152"
       spreadMethod="pad"
       gradientTransform="matrix(3.6019642,0,0,-3.6019642,904.91742,649.27094)"
       gradientUnits="userSpaceOnUse"
       y2="0"
       x2="1"
       y1="0"
       x1="0">
      <stop
         id="stop1146"
         offset="0"
         style="stop-opacity:1;stop-color:#2fac66" />
      <stop
         id="stop1148"
         offset="0.990148"
         style="stop-opacity:1;stop-color:#2c2e83" />
      <stop
         id="stop1150"
         offset="1"
         style="stop-opacity:1;stop-color:#2c2e83" />
    </linearGradient>
    <clipPath
       id="clipPath1162"
       clipPathUnits="userSpaceOnUse">
      <path
         id="path1160"
         d="m 910.49,649.271 c 0,-0.995 0.808,-1.801 1.801,-1.801 v 0 c 0.996,0 1.801,0.806 1.801,1.801 v 0 c 0,0.994 -0.805,1.801 -1.801,1.801 v 0 c -0.993,0 -1.801,-0.807 -1.801,-1.801" />
    </clipPath>
    <linearGradient
       id="linearGradient1174"
       spreadMethod="pad"
       gradientTransform="matrix(3.6019642,0,0,-3.6019642,910.49078,649.27094)"
       gradientUnits="userSpaceOnUse"
       y2="0"
       x2="1"
       y1="0"
       x1="0">
      <stop
         id="stop1168"
         offset="0"
         style="stop-opacity:1;stop-color:#2fac66" />
      <stop
         id="stop1170"
         offset="0.990148"
         style="stop-opacity:1;stop-color:#2c2e83" />
      <stop
         id="stop1172"
         offset="1"
         style="stop-opacity:1;stop-color:#2c2e83" />
    </linearGradient>
    <clipPath
       id="clipPath1184"
       clipPathUnits="userSpaceOnUse">
      <path
         id="path1182"
         d="m 916.157,649.287 c 0,-0.995 0.805,-1.802 1.801,-1.802 v 0 c 0.995,0 1.801,0.807 1.801,1.802 v 0 c 0,0.994 -0.806,1.801 -1.801,1.801 v 0 c -0.996,0 -1.801,-0.807 -1.801,-1.801" />
    </clipPath>
    <linearGradient
       id="linearGradient1196"
       spreadMethod="pad"
       gradientTransform="matrix(3.6019642,0,0,-3.6019642,916.15662,649.28656)"
       gradientUnits="userSpaceOnUse"
       y2="0"
       x2="1"
       y1="0"
       x1="0">
      <stop
         id="stop1190"
         offset="0"
         style="stop-opacity:1;stop-color:#2fac66" />
      <stop
         id="stop1192"
         offset="0.990148"
         style="stop-opacity:1;stop-color:#2c2e83" />
      <stop
         id="stop1194"
         offset="1"
         style="stop-opacity:1;stop-color:#2c2e83" />
    </linearGradient>
    <clipPath
       id="clipPath1206"
       clipPathUnits="userSpaceOnUse">
      <path
         id="path1204"
         d="m 921.73,649.287 c 0,-0.995 0.807,-1.802 1.801,-1.802 v 0 c 0.995,0 1.8,0.807 1.8,1.802 v 0 c 0,0.994 -0.805,1.801 -1.8,1.801 v 0 c -0.994,0 -1.801,-0.807 -1.801,-1.801" />
    </clipPath>
    <linearGradient
       id="linearGradient1218"
       spreadMethod="pad"
       gradientTransform="matrix(3.6019642,0,0,-3.6019642,921.72998,649.28656)"
       gradientUnits="userSpaceOnUse"
       y2="0"
       x2="1"
       y1="0"
       x1="0">
      <stop
         id="stop1212"
         offset="0"
         style="stop-opacity:1;stop-color:#2fac66" />
      <stop
         id="stop1214"
         offset="0.990148"
         style="stop-opacity:1;stop-color:#2c2e83" />
      <stop
         id="stop1216"
         offset="1"
         style="stop-opacity:1;stop-color:#2c2e83" />
    </linearGradient>
    <clipPath
       id="clipPath1228"
       clipPathUnits="userSpaceOnUse">
      <path
         id="path1226"
         d="m 927.015,649.255 c 0,-0.994 0.807,-1.8 1.801,-1.8 v 0 c 0.995,0 1.802,0.806 1.802,1.8 v 0 c 0,0.995 -0.807,1.801 -1.802,1.801 v 0 c -0.994,0 -1.801,-0.806 -1.801,-1.801" />
    </clipPath>
    <linearGradient
       id="linearGradient1240"
       spreadMethod="pad"
       gradientTransform="matrix(3.6019642,0,0,-3.6019642,927.01532,649.25537)"
       gradientUnits="userSpaceOnUse"
       y2="0"
       x2="1"
       y1="0"
       x1="0">
      <stop
         id="stop1234"
         offset="0"
         style="stop-opacity:1;stop-color:#2fac66" />
      <stop
         id="stop1236"
         offset="0.990148"
         style="stop-opacity:1;stop-color:#2c2e83" />
      <stop
         id="stop1238"
         offset="1"
         style="stop-opacity:1;stop-color:#2c2e83" />
    </linearGradient>
    <clipPath
       id="clipPath1250"
       clipPathUnits="userSpaceOnUse">
      <path
         id="path1248"
         d="m 932.588,649.255 c 0,-0.994 0.807,-1.8 1.801,-1.8 v 0 c 0.995,0 1.802,0.806 1.802,1.8 v 0 c 0,0.995 -0.807,1.801 -1.802,1.801 v 0 c -0.994,0 -1.801,-0.806 -1.801,-1.801" />
    </clipPath>
    <linearGradient
       id="linearGradient1262"
       spreadMethod="pad"
       gradientTransform="matrix(3.6019642,0,0,-3.6019642,932.58868,649.25537)"
       gradientUnits="userSpaceOnUse"
       y2="0"
       x2="1"
       y1="0"
       x1="0">
      <stop
         id="stop1256"
         offset="0"
         style="stop-opacity:1;stop-color:#2fac66" />
      <stop
         id="stop1258"
         offset="0.990148"
         style="stop-opacity:1;stop-color:#2c2e83" />
      <stop
         id="stop1260"
         offset="1"
         style="stop-opacity:1;stop-color:#2c2e83" />
    </linearGradient>
    <clipPath
       id="clipPath1272"
       clipPathUnits="userSpaceOnUse">
      <path
         id="path1270"
         d="m 893.567,507.452 c 0,-0.995 0.806,-1.801 1.802,-1.801 v 0 c 0.994,0 1.8,0.806 1.8,1.801 v 0 c 0,0.994 -0.806,1.8 -1.8,1.8 v 0 c -0.996,0 -1.802,-0.806 -1.802,-1.8" />
    </clipPath>
    <linearGradient
       id="linearGradient1284"
       spreadMethod="pad"
       gradientTransform="matrix(3.6019642,0,0,-3.6019642,893.56744,507.45169)"
       gradientUnits="userSpaceOnUse"
       y2="0"
       x2="1"
       y1="0"
       x1="0">
      <stop
         id="stop1278"
         offset="0"
         style="stop-opacity:1;stop-color:#2fac66" />
      <stop
         id="stop1280"
         offset="0.990148"
         style="stop-opacity:1;stop-color:#2c2e83" />
      <stop
         id="stop1282"
         offset="1"
         style="stop-opacity:1;stop-color:#2c2e83" />
    </linearGradient>
    <clipPath
       id="clipPath1294"
       clipPathUnits="userSpaceOnUse">
      <path
         id="path1292"
         d="m 899.141,507.452 c 0,-0.995 0.806,-1.801 1.801,-1.801 v 0 c 0.994,0 1.8,0.806 1.8,1.801 v 0 c 0,0.994 -0.806,1.8 -1.8,1.8 v 0 c -0.995,0 -1.801,-0.806 -1.801,-1.8" />
    </clipPath>
    <linearGradient
       id="linearGradient1306"
       spreadMethod="pad"
       gradientTransform="matrix(3.6019642,0,0,-3.6019642,899.14087,507.45169)"
       gradientUnits="userSpaceOnUse"
       y2="0"
       x2="1"
       y1="0"
       x1="0">
      <stop
         id="stop1300"
         offset="0"
         style="stop-opacity:1;stop-color:#2fac66" />
      <stop
         id="stop1302"
         offset="0.990148"
         style="stop-opacity:1;stop-color:#2c2e83" />
      <stop
         id="stop1304"
         offset="1"
         style="stop-opacity:1;stop-color:#2c2e83" />
    </linearGradient>
    <clipPath
       id="clipPath1316"
       clipPathUnits="userSpaceOnUse">
      <path
         id="path1314"
         d="m 904.426,507.421 c 0,-0.995 0.807,-1.801 1.801,-1.801 v 0 c 0.995,0 1.801,0.806 1.801,1.801 v 0 c 0,0.994 -0.806,1.8 -1.801,1.8 v 0 c -0.994,0 -1.801,-0.806 -1.801,-1.8" />
    </clipPath>
    <linearGradient
       id="linearGradient1328"
       spreadMethod="pad"
       gradientTransform="matrix(3.6019642,0,0,-3.6019642,904.42621,507.4205)"
       gradientUnits="userSpaceOnUse"
       y2="0"
       x2="1"
       y1="0"
       x1="0">
      <stop
         id="stop1322"
         offset="0"
         style="stop-opacity:1;stop-color:#2fac66" />
      <stop
         id="stop1324"
         offset="0.990148"
         style="stop-opacity:1;stop-color:#2c2e83" />
      <stop
         id="stop1326"
         offset="1"
         style="stop-opacity:1;stop-color:#2c2e83" />
    </linearGradient>
    <clipPath
       id="clipPath1338"
       clipPathUnits="userSpaceOnUse">
      <path
         id="path1336"
         d="m 910,507.421 c 0,-0.995 0.806,-1.801 1.8,-1.801 v 0 c 0.995,0 1.801,0.806 1.801,1.801 v 0 c 0,0.994 -0.806,1.8 -1.801,1.8 v 0 c -0.994,0 -1.8,-0.806 -1.8,-1.8" />
    </clipPath>
    <linearGradient
       id="linearGradient1350"
       spreadMethod="pad"
       gradientTransform="matrix(3.6019642,0,0,-3.6019642,909.99957,507.4205)"
       gradientUnits="userSpaceOnUse"
       y2="0"
       x2="1"
       y1="0"
       x1="0">
      <stop
         id="stop1344"
         offset="0"
         style="stop-opacity:1;stop-color:#2fac66" />
      <stop
         id="stop1346"
         offset="0.990148"
         style="stop-opacity:1;stop-color:#2c2e83" />
      <stop
         id="stop1348"
         offset="1"
         style="stop-opacity:1;stop-color:#2c2e83" />
    </linearGradient>
    <clipPath
       id="clipPath1360"
       clipPathUnits="userSpaceOnUse">
      <path
         id="path1358"
         d="m 915.665,507.436 c 0,-0.994 0.806,-1.801 1.801,-1.801 v 0 c 0.995,0 1.801,0.807 1.801,1.801 v 0 c 0,0.995 -0.806,1.801 -1.801,1.801 v 0 c -0.995,0 -1.801,-0.806 -1.801,-1.801" />
    </clipPath>
    <linearGradient
       id="linearGradient1372"
       spreadMethod="pad"
       gradientTransform="matrix(3.6019642,0,0,-3.6019642,915.66541,507.4361)"
       gradientUnits="userSpaceOnUse"
       y2="0"
       x2="1"
       y1="0"
       x1="0">
      <stop
         id="stop1366"
         offset="0"
         style="stop-opacity:1;stop-color:#2fac66" />
      <stop
         id="stop1368"
         offset="0.990148"
         style="stop-opacity:1;stop-color:#2c2e83" />
      <stop
         id="stop1370"
         offset="1"
         style="stop-opacity:1;stop-color:#2c2e83" />
    </linearGradient>
    <clipPath
       id="clipPath1382"
       clipPathUnits="userSpaceOnUse">
      <path
         id="path1380"
         d="m 921.239,507.436 c 0,-0.994 0.806,-1.801 1.801,-1.801 v 0 c 0.994,0 1.8,0.807 1.8,1.801 v 0 c 0,0.995 -0.806,1.801 -1.8,1.801 v 0 c -0.995,0 -1.801,-0.806 -1.801,-1.801" />
    </clipPath>
    <linearGradient
       id="linearGradient1394"
       spreadMethod="pad"
       gradientTransform="matrix(3.6019642,0,0,-3.6019642,921.23877,507.4361)"
       gradientUnits="userSpaceOnUse"
       y2="0"
       x2="1"
       y1="0"
       x1="0">
      <stop
         id="stop1388"
         offset="0"
         style="stop-opacity:1;stop-color:#2fac66" />
      <stop
         id="stop1390"
         offset="0.990148"
         style="stop-opacity:1;stop-color:#2c2e83" />
      <stop
         id="stop1392"
         offset="1"
         style="stop-opacity:1;stop-color:#2c2e83" />
    </linearGradient>
    <clipPath
       id="clipPath1404"
       clipPathUnits="userSpaceOnUse">
      <path
         id="path1402"
         d="m 926.524,507.405 c 0,-0.995 0.806,-1.801 1.801,-1.801 v 0 c 0.995,0 1.802,0.806 1.802,1.801 v 0 c 0,0.994 -0.807,1.801 -1.802,1.801 v 0 c -0.995,0 -1.801,-0.807 -1.801,-1.801" />
    </clipPath>
    <linearGradient
       id="linearGradient1416"
       spreadMethod="pad"
       gradientTransform="matrix(3.6019642,0,0,-3.6019642,926.52411,507.40491)"
       gradientUnits="userSpaceOnUse"
       y2="0"
       x2="1"
       y1="0"
       x1="0">
      <stop
         id="stop1410"
         offset="0"
         style="stop-opacity:1;stop-color:#2fac66" />
      <stop
         id="stop1412"
         offset="0.990148"
         style="stop-opacity:1;stop-color:#2c2e83" />
      <stop
         id="stop1414"
         offset="1"
         style="stop-opacity:1;stop-color:#2c2e83" />
    </linearGradient>
    <clipPath
       id="clipPath1426"
       clipPathUnits="userSpaceOnUse">
      <path
         id="path1424"
         d="m 932.098,507.405 c 0,-0.995 0.806,-1.801 1.8,-1.801 v 0 c 0.995,0 1.801,0.806 1.801,1.801 v 0 c 0,0.994 -0.806,1.801 -1.801,1.801 v 0 c -0.994,0 -1.8,-0.807 -1.8,-1.801" />
    </clipPath>
    <linearGradient
       id="linearGradient1438"
       spreadMethod="pad"
       gradientTransform="matrix(3.6019642,0,0,-3.6019642,932.09747,507.40491)"
       gradientUnits="userSpaceOnUse"
       y2="0"
       x2="1"
       y1="0"
       x1="0">
      <stop
         id="stop1432"
         offset="0"
         style="stop-opacity:1;stop-color:#2fac66" />
      <stop
         id="stop1434"
         offset="0.990148"
         style="stop-opacity:1;stop-color:#2c2e83" />
      <stop
         id="stop1436"
         offset="1"
         style="stop-opacity:1;stop-color:#2c2e83" />
    </linearGradient>
    <clipPath
       id="clipPath1448"
       clipPathUnits="userSpaceOnUse">
      <path
         id="path1446"
         d="m 984.492,597.487 c 0,-0.995 0.805,-1.801 1.801,-1.801 v 0 c 0.993,0 1.8,0.806 1.8,1.801 v 0 c 0,0.995 -0.807,1.801 -1.8,1.801 v 0 c -0.996,0 -1.801,-0.806 -1.801,-1.801" />
    </clipPath>
    <linearGradient
       id="linearGradient1460"
       spreadMethod="pad"
       gradientTransform="matrix(3.6019642,0,0,-3.6019642,984.49146,597.48706)"
       gradientUnits="userSpaceOnUse"
       y2="0"
       x2="1"
       y1="0"
       x1="0">
      <stop
         id="stop1454"
         offset="0"
         style="stop-opacity:1;stop-color:#2fac66" />
      <stop
         id="stop1456"
         offset="0.990148"
         style="stop-opacity:1;stop-color:#2c2e83" />
      <stop
         id="stop1458"
         offset="1"
         style="stop-opacity:1;stop-color:#2c2e83" />
    </linearGradient>
    <clipPath
       id="clipPath1470"
       clipPathUnits="userSpaceOnUse">
      <path
         id="path1468"
         d="m 984.492,591.914 c 0,-0.995 0.805,-1.801 1.801,-1.801 v 0 c 0.993,0 1.8,0.806 1.8,1.801 v 0 c 0,0.994 -0.807,1.801 -1.8,1.801 v 0 c -0.996,0 -1.801,-0.807 -1.801,-1.801" />
    </clipPath>
    <linearGradient
       id="linearGradient1482"
       spreadMethod="pad"
       gradientTransform="matrix(3.6019642,0,0,-3.6019642,984.49146,591.9137)"
       gradientUnits="userSpaceOnUse"
       y2="0"
       x2="1"
       y1="0"
       x1="0">
      <stop
         id="stop1476"
         offset="0"
         style="stop-opacity:1;stop-color:#2fac66" />
      <stop
         id="stop1478"
         offset="0.990148"
         style="stop-opacity:1;stop-color:#2c2e83" />
      <stop
         id="stop1480"
         offset="1"
         style="stop-opacity:1;stop-color:#2c2e83" />
    </linearGradient>
    <clipPath
       id="clipPath1492"
       clipPathUnits="userSpaceOnUse">
      <path
         id="path1490"
         d="m 984.461,586.628 c 0,-0.994 0.805,-1.801 1.8,-1.801 v 0 c 0.994,0 1.801,0.807 1.801,1.801 v 0 c 0,0.995 -0.807,1.801 -1.801,1.801 v 0 c -0.995,0 -1.8,-0.806 -1.8,-1.801" />
    </clipPath>
    <linearGradient
       id="linearGradient1504"
       spreadMethod="pad"
       gradientTransform="matrix(3.6019642,0,0,-3.6019642,984.46027,586.62836)"
       gradientUnits="userSpaceOnUse"
       y2="0"
       x2="1"
       y1="0"
       x1="0">
      <stop
         id="stop1498"
         offset="0"
         style="stop-opacity:1;stop-color:#2fac66" />
      <stop
         id="stop1500"
         offset="0.990148"
         style="stop-opacity:1;stop-color:#2c2e83" />
      <stop
         id="stop1502"
         offset="1"
         style="stop-opacity:1;stop-color:#2c2e83" />
    </linearGradient>
    <clipPath
       id="clipPath1514"
       clipPathUnits="userSpaceOnUse">
      <path
         id="path1512"
         d="m 984.461,581.054 c 0,-0.994 0.805,-1.8 1.8,-1.8 v 0 c 0.994,0 1.801,0.806 1.801,1.8 v 0 c 0,0.996 -0.807,1.802 -1.801,1.802 v 0 c -0.995,0 -1.8,-0.806 -1.8,-1.802" />
    </clipPath>
    <linearGradient
       id="linearGradient1526"
       spreadMethod="pad"
       gradientTransform="matrix(3.6019642,0,0,-3.6019642,984.46027,581.05493)"
       gradientUnits="userSpaceOnUse"
       y2="0"
       x2="1"
       y1="0"
       x1="0">
      <stop
         id="stop1520"
         offset="0"
         style="stop-opacity:1;stop-color:#2fac66" />
      <stop
         id="stop1522"
         offset="0.990148"
         style="stop-opacity:1;stop-color:#2c2e83" />
      <stop
         id="stop1524"
         offset="1"
         style="stop-opacity:1;stop-color:#2c2e83" />
    </linearGradient>
    <clipPath
       id="clipPath1536"
       clipPathUnits="userSpaceOnUse">
      <path
         id="path1534"
         d="m 984.476,575.389 c 0,-0.995 0.806,-1.801 1.801,-1.801 v 0 c 0.994,0 1.801,0.806 1.801,1.801 v 0 c 0,0.995 -0.807,1.801 -1.801,1.801 v 0 c -0.995,0 -1.801,-0.806 -1.801,-1.801" />
    </clipPath>
    <linearGradient
       id="linearGradient1548"
       spreadMethod="pad"
       gradientTransform="matrix(3.6019642,0,0,-3.6019642,984.47583,575.38916)"
       gradientUnits="userSpaceOnUse"
       y2="0"
       x2="1"
       y1="0"
       x1="0">
      <stop
         id="stop1542"
         offset="0"
         style="stop-opacity:1;stop-color:#2fac66" />
      <stop
         id="stop1544"
         offset="0.990148"
         style="stop-opacity:1;stop-color:#2c2e83" />
      <stop
         id="stop1546"
         offset="1"
         style="stop-opacity:1;stop-color:#2c2e83" />
    </linearGradient>
    <clipPath
       id="clipPath1558"
       clipPathUnits="userSpaceOnUse">
      <path
         id="path1556"
         d="m 984.476,569.815 c 0,-0.994 0.806,-1.8 1.801,-1.8 v 0 c 0.994,0 1.801,0.806 1.801,1.8 v 0 c 0,0.996 -0.807,1.802 -1.801,1.802 v 0 c -0.995,0 -1.801,-0.806 -1.801,-1.802" />
    </clipPath>
    <linearGradient
       id="linearGradient1570"
       spreadMethod="pad"
       gradientTransform="matrix(3.6019642,0,0,-3.6019642,984.47583,569.8158)"
       gradientUnits="userSpaceOnUse"
       y2="0"
       x2="1"
       y1="0"
       x1="0">
      <stop
         id="stop1564"
         offset="0"
         style="stop-opacity:1;stop-color:#2fac66" />
      <stop
         id="stop1566"
         offset="0.990148"
         style="stop-opacity:1;stop-color:#2c2e83" />
      <stop
         id="stop1568"
         offset="1"
         style="stop-opacity:1;stop-color:#2c2e83" />
    </linearGradient>
    <clipPath
       id="clipPath1580"
       clipPathUnits="userSpaceOnUse">
      <path
         id="path1578"
         d="m 984.445,564.53 c 0,-0.994 0.806,-1.801 1.8,-1.801 v 0 c 0.995,0 1.801,0.807 1.801,1.801 v 0 c 0,0.995 -0.806,1.801 -1.801,1.801 v 0 c -0.994,0 -1.8,-0.806 -1.8,-1.801" />
    </clipPath>
    <linearGradient
       id="linearGradient1592"
       spreadMethod="pad"
       gradientTransform="matrix(3.6019642,0,0,-3.6019642,984.44464,564.53046)"
       gradientUnits="userSpaceOnUse"
       y2="0"
       x2="1"
       y1="0"
       x1="0">
      <stop
         id="stop1586"
         offset="0"
         style="stop-opacity:1;stop-color:#2fac66" />
      <stop
         id="stop1588"
         offset="0.990148"
         style="stop-opacity:1;stop-color:#2c2e83" />
      <stop
         id="stop1590"
         offset="1"
         style="stop-opacity:1;stop-color:#2c2e83" />
    </linearGradient>
    <clipPath
       id="clipPath1602"
       clipPathUnits="userSpaceOnUse">
      <path
         id="path1600"
         d="m 984.445,558.957 c 0,-0.995 0.806,-1.801 1.8,-1.801 v 0 c 0.995,0 1.801,0.806 1.801,1.801 v 0 c 0,0.995 -0.806,1.801 -1.801,1.801 v 0 c -0.994,0 -1.8,-0.806 -1.8,-1.801" />
    </clipPath>
    <linearGradient
       id="linearGradient1614"
       spreadMethod="pad"
       gradientTransform="matrix(3.6019642,0,0,-3.6019642,984.44464,558.95703)"
       gradientUnits="userSpaceOnUse"
       y2="0"
       x2="1"
       y1="0"
       x1="0">
      <stop
         id="stop1608"
         offset="0"
         style="stop-opacity:1;stop-color:#2fac66" />
      <stop
         id="stop1610"
         offset="0.990148"
         style="stop-opacity:1;stop-color:#2c2e83" />
      <stop
         id="stop1612"
         offset="1"
         style="stop-opacity:1;stop-color:#2c2e83" />
    </linearGradient>
    <clipPath
       id="clipPath1624"
       clipPathUnits="userSpaceOnUse">
      <path
         id="path1622"
         d="m 842.641,597.978 c 0,-0.995 0.806,-1.801 1.801,-1.801 v 0 c 0.995,0 1.801,0.806 1.801,1.801 v 0 c 0,0.994 -0.806,1.802 -1.801,1.802 v 0 c -0.995,0 -1.801,-0.808 -1.801,-1.802" />
    </clipPath>
    <linearGradient
       id="linearGradient1636"
       spreadMethod="pad"
       gradientTransform="matrix(3.6019642,0,0,-3.6019642,842.64099,597.97827)"
       gradientUnits="userSpaceOnUse"
       y2="0"
       x2="1"
       y1="0"
       x1="0">
      <stop
         id="stop1630"
         offset="0"
         style="stop-opacity:1;stop-color:#2fac66" />
      <stop
         id="stop1632"
         offset="0.990148"
         style="stop-opacity:1;stop-color:#2c2e83" />
      <stop
         id="stop1634"
         offset="1"
         style="stop-opacity:1;stop-color:#2c2e83" />
    </linearGradient>
    <clipPath
       id="clipPath1646"
       clipPathUnits="userSpaceOnUse">
      <path
         id="path1644"
         d="m 842.641,592.405 c 0,-0.994 0.806,-1.801 1.801,-1.801 v 0 c 0.995,0 1.801,0.807 1.801,1.801 v 0 c 0,0.995 -0.806,1.801 -1.801,1.801 v 0 c -0.995,0 -1.801,-0.806 -1.801,-1.801" />
    </clipPath>
    <linearGradient
       id="linearGradient1658"
       spreadMethod="pad"
       gradientTransform="matrix(3.6019642,0,0,-3.6019642,842.64099,592.40491)"
       gradientUnits="userSpaceOnUse"
       y2="0"
       x2="1"
       y1="0"
       x1="0">
      <stop
         id="stop1652"
         offset="0"
         style="stop-opacity:1;stop-color:#2fac66" />
      <stop
         id="stop1654"
         offset="0.990148"
         style="stop-opacity:1;stop-color:#2c2e83" />
      <stop
         id="stop1656"
         offset="1"
         style="stop-opacity:1;stop-color:#2c2e83" />
    </linearGradient>
    <clipPath
       id="clipPath1668"
       clipPathUnits="userSpaceOnUse">
      <path
         id="path1666"
         d="m 842.61,587.12 c 0,-0.995 0.806,-1.801 1.801,-1.801 v 0 c 0.995,0 1.8,0.806 1.8,1.801 v 0 c 0,0.994 -0.805,1.8 -1.8,1.8 v 0 c -0.995,0 -1.801,-0.806 -1.801,-1.8" />
    </clipPath>
    <linearGradient
       id="linearGradient1680"
       spreadMethod="pad"
       gradientTransform="matrix(3.6019642,0,0,-3.6019642,842.6098,587.11957)"
       gradientUnits="userSpaceOnUse"
       y2="0"
       x2="1"
       y1="0"
       x1="0">
      <stop
         id="stop1674"
         offset="0"
         style="stop-opacity:1;stop-color:#2fac66" />
      <stop
         id="stop1676"
         offset="0.990148"
         style="stop-opacity:1;stop-color:#2c2e83" />
      <stop
         id="stop1678"
         offset="1"
         style="stop-opacity:1;stop-color:#2c2e83" />
    </linearGradient>
    <clipPath
       id="clipPath1690"
       clipPathUnits="userSpaceOnUse">
      <path
         id="path1688"
         d="m 842.61,581.546 c 0,-0.995 0.806,-1.801 1.801,-1.801 v 0 c 0.995,0 1.8,0.806 1.8,1.801 v 0 c 0,0.994 -0.805,1.802 -1.8,1.802 v 0 c -0.995,0 -1.801,-0.808 -1.801,-1.802" />
    </clipPath>
    <linearGradient
       id="linearGradient1702"
       spreadMethod="pad"
       gradientTransform="matrix(3.6019642,0,0,-3.6019642,842.6098,581.5462)"
       gradientUnits="userSpaceOnUse"
       y2="0"
       x2="1"
       y1="0"
       x1="0">
      <stop
         id="stop1696"
         offset="0"
         style="stop-opacity:1;stop-color:#2fac66" />
      <stop
         id="stop1698"
         offset="0.990148"
         style="stop-opacity:1;stop-color:#2c2e83" />
      <stop
         id="stop1700"
         offset="1"
         style="stop-opacity:1;stop-color:#2c2e83" />
    </linearGradient>
    <clipPath
       id="clipPath1712"
       clipPathUnits="userSpaceOnUse">
      <path
         id="path1710"
         d="m 842.626,575.88 c 0,-0.994 0.806,-1.801 1.8,-1.801 v 0 c 0.995,0 1.801,0.807 1.801,1.801 v 0 c 0,0.995 -0.806,1.801 -1.801,1.801 v 0 c -0.994,0 -1.8,-0.806 -1.8,-1.801" />
    </clipPath>
    <linearGradient
       id="linearGradient1724"
       spreadMethod="pad"
       gradientTransform="matrix(3.6019642,0,0,-3.6019642,842.62543,575.88037)"
       gradientUnits="userSpaceOnUse"
       y2="0"
       x2="1"
       y1="0"
       x1="0">
      <stop
         id="stop1718"
         offset="0"
         style="stop-opacity:1;stop-color:#2fac66" />
      <stop
         id="stop1720"
         offset="0.990148"
         style="stop-opacity:1;stop-color:#2c2e83" />
      <stop
         id="stop1722"
         offset="1"
         style="stop-opacity:1;stop-color:#2c2e83" />
    </linearGradient>
    <clipPath
       id="clipPath1734"
       clipPathUnits="userSpaceOnUse">
      <path
         id="path1732"
         d="m 842.626,570.307 c 0,-0.995 0.806,-1.801 1.8,-1.801 v 0 c 0.995,0 1.801,0.806 1.801,1.801 v 0 c 0,0.995 -0.806,1.801 -1.801,1.801 v 0 c -0.994,0 -1.8,-0.806 -1.8,-1.801" />
    </clipPath>
    <linearGradient
       id="linearGradient1746"
       spreadMethod="pad"
       gradientTransform="matrix(3.6019642,0,0,-3.6019642,842.62543,570.30701)"
       gradientUnits="userSpaceOnUse"
       y2="0"
       x2="1"
       y1="0"
       x1="0">
      <stop
         id="stop1740"
         offset="0"
         style="stop-opacity:1;stop-color:#2fac66" />
      <stop
         id="stop1742"
         offset="0.990148"
         style="stop-opacity:1;stop-color:#2c2e83" />
      <stop
         id="stop1744"
         offset="1"
         style="stop-opacity:1;stop-color:#2c2e83" />
    </linearGradient>
    <clipPath
       id="clipPath1756"
       clipPathUnits="userSpaceOnUse">
      <path
         id="path1754"
         d="m 842.594,565.022 c 0,-0.995 0.807,-1.801 1.801,-1.801 v 0 c 0.995,0 1.801,0.806 1.801,1.801 v 0 c 0,0.994 -0.806,1.801 -1.801,1.801 v 0 c -0.994,0 -1.801,-0.807 -1.801,-1.801" />
    </clipPath>
    <linearGradient
       id="linearGradient1768"
       spreadMethod="pad"
       gradientTransform="matrix(3.6019642,0,0,-3.6019642,842.59424,565.02167)"
       gradientUnits="userSpaceOnUse"
       y2="0"
       x2="1"
       y1="0"
       x1="0">
      <stop
         id="stop1762"
         offset="0"
         style="stop-opacity:1;stop-color:#2fac66" />
      <stop
         id="stop1764"
         offset="0.990148"
         style="stop-opacity:1;stop-color:#2c2e83" />
      <stop
         id="stop1766"
         offset="1"
         style="stop-opacity:1;stop-color:#2c2e83" />
    </linearGradient>
    <clipPath
       id="clipPath1778"
       clipPathUnits="userSpaceOnUse">
      <path
         id="path1776"
         d="m 842.594,559.448 c 0,-0.994 0.807,-1.801 1.801,-1.801 v 0 c 0.995,0 1.801,0.807 1.801,1.801 v 0 c 0,0.995 -0.806,1.801 -1.801,1.801 v 0 c -0.994,0 -1.801,-0.806 -1.801,-1.801" />
    </clipPath>
    <linearGradient
       id="linearGradient1790"
       spreadMethod="pad"
       gradientTransform="matrix(3.6019642,0,0,-3.6019642,842.59424,559.44824)"
       gradientUnits="userSpaceOnUse"
       y2="0"
       x2="1"
       y1="0"
       x1="0">
      <stop
         id="stop1784"
         offset="0"
         style="stop-opacity:1;stop-color:#2fac66" />
      <stop
         id="stop1786"
         offset="0.990148"
         style="stop-opacity:1;stop-color:#2c2e83" />
      <stop
         id="stop1788"
         offset="1"
         style="stop-opacity:1;stop-color:#2c2e83" />
    </linearGradient>
    <clipPath
       id="clipPath1020"
       clipPathUnits="userSpaceOnUse">
      <path
         id="path1018"
         d="m 444.252,475.554 h -40.553 l -13.264,-13.264 0.027,-41.059 -0.027,-41.06 13.264,-13.263 h 40.553 40.551 l 13.264,13.263 -0.028,41.06 0.028,41.059 -13.264,13.264 z" />
    </clipPath>
    <linearGradient
       id="linearGradient1032"
       spreadMethod="pad"
       gradientTransform="matrix(107.63152,0,0,-107.63152,390.43561,421.2305)"
       gradientUnits="userSpaceOnUse"
       y2="0"
       x2="1"
       y1="0"
       x1="0">
      <stop
         id="stop1026"
         offset="0"
         style="stop-opacity:1;stop-color:#2fac66" />
      <stop
         id="stop1028"
         offset="0.990148"
         style="stop-opacity:1;stop-color:#2c2e83" />
      <stop
         id="stop1030"
         offset="1"
         style="stop-opacity:1;stop-color:#2c2e83" />
    </linearGradient>
    <clipPath
       id="clipPath460"
       clipPathUnits="userSpaceOnUse">
      <path
         id="path458"
         d="M 0,841.89 H 1190.551 V 0 H 0 Z" />
    </clipPath>
    <clipPath
       id="clipPath1054"
       clipPathUnits="userSpaceOnUse">
      <path
         id="path1052"
         d="m 437.055,319.303 -23.15,-23.181 -23.181,-23.149 v -14.966 l 22.879,-22.879 22.879,-22.879 h 14.966 l 23.149,23.181 23.181,23.15 v 14.965 l -22.879,22.879 -22.878,22.879 z" />
    </clipPath>
    <linearGradient
       id="linearGradient1066"
       spreadMethod="pad"
       gradientTransform="matrix(107.05347,0,0,-107.05347,390.72464,265.77609)"
       gradientUnits="userSpaceOnUse"
       y2="0"
       x2="1"
       y1="0"
       x1="0">
      <stop
         id="stop1060"
         offset="0"
         style="stop-opacity:1;stop-color:#f9b233" />
      <stop
         id="stop1062"
         offset="0.990148"
         style="stop-opacity:1;stop-color:#e6007e" />
      <stop
         id="stop1064"
         offset="1"
         style="stop-opacity:1;stop-color:#e6007e" />
    </linearGradient>
  </defs>
  <metadata
     id="metadata3785">
    <rdf:RDF>
      <cc:Work
         rdf:about="">
        <dc:format>image/svg+xml</dc:format>
        <dc:type
           rdf:resource="http://purl.org/dc/dcmitype/StillImage" />
        <dc:title></dc:title>
      </cc:Work>
    </rdf:RDF>
  </metadata>
  <g
     style="opacity:1"
     transform="translate(0,-241.96666)"
     id="layer1">
    <g
       id="g1048"
       transform="matrix(0.35277777,0,0,-0.35277777,-129.20521,363.24319)">
      <g
         clip-path="url(#clipPath1054)"
         id="g1050">
        <g
           id="g1056">
          <g
             id="g1058">
            <path
               id="path1068"
               style="fill:url(#linearGradient1066);stroke:none"
               d="m 437.055,319.303 -23.15,-23.181 -23.181,-23.149 v -14.966 l 22.879,-22.879 22.879,-22.879 h 14.966 l 23.149,23.181 23.181,23.15 v 14.965 l -22.879,22.879 -22.878,22.879 z" />
          </g>
        </g>
      </g>
    </g>
  </g>
</svg>
